<svg xmlns="http://www.w3.org/2000/svg" xml:space="preserve" viewBox="0 0 64 64"><path d="M52.9 45.4c-1.1-1.7-2.5-3.2-3.9-4.6-4.2-4.4-8.9-8.3-13.6-12.2-1.6-1.3-3.5-2.5-4.9-4-2-2.1-3.9-4.3-6-6.3-.6-.6-.6-1.3-.1-1.8.4-.5.6-.8.3-1.5-.2-.4-.4-.9-.7-.9-.4 0-.6.6-.9.9-.1.1-.1.4 0 .6.2.5.1.9.1 1.6-.7-.7-.6-1.4-.4-2.1s-.1-1.3-.6-1.5c-.8-.3-1.6-.5-2.5-.4-.1 0-.3.2-.4 0-.3-.9-.5-.1-.8 0-.2.1-.4.5-.6 0-.5-1.2-1.6-1.1-2.6-1.3-.7-.1-.6.1-.6.6 0 .4-.2 1-.6.8-.8-.3-1.4.5-2.2.3-.2 0-.2.1-.2.3.1.9.1 1.8.7 2.6.2.3.3.7.1 1-.4.8-.4 1.5-.1 2.3.1.1.2.2.1.3s-.2 0-.3-.1c-.3.5-.8.6-1.4.6-.3 0-.7-.1-.5.4.4.8.4 1.7.8 2.5.6 1.1 1.3 1.7 2.5 1.4s1.8-.2 2.6.3c-3.7.7-3.7.7-4.2 1.4.8-.1 1.3.6 2.1.7.5.1.9.2 1.3-.1 1.4-1.2 1.9-1.2 3.4-.1.2.2.5.3.7.5 2.7 2 5.6 3.7 7.9 6.2 4.3 4.8 8.9 9.4 13.8 13.7 1.5 1.3 3.1 2.3 4.6 3.6 1.4 1.2 2.9 1.2 4.5.2q1.2-.75 2.1-1.8c1.5-1.3 1.6-2.4.5-4.1M26.3 22.9c1.6 2.1 5.2 8.8 5.2 8.8s-3.7-5.9-5.1-8.1c-.4-.8-2.3-3.6-2.3-3.6s1.7 2.2 2.2 2.9m-2.5-3.1c-.9-.6-1.3-1.6-2.1-2.1 1 .1 1.9 1.1 2.1 2.1m-3.4 0c.4.5.9.9 1 1.5-.4-.5-.8-.9-1.2-1.4 0 .1.1 0 .2-.1m-1 1.6c.9.8 3 3.4 3.2 4-3-1.6-3.8-2.6-3.2-4m-2.2 1.8c1.8 1.4 3.5 2.8 5.4 4.2-1.4 0-5.4-3.2-5.4-4.2m17.2 11.5c-2.3-1.8-11.3-7.1-11.3-7.1s9 5 11.3 6.7c4.3 3.1 16.3 12 16.3 12s-12-8.4-16.3-11.6"/></svg>