<svg xmlns="http://www.w3.org/2000/svg" xml:space="preserve" viewBox="0 0 64 64"><path d="M44 36.6c-4.3-1.8-8.6-3.8-12.8-5.7-4.4-1.9-8.8-3.8-13.1-5.9-1.7-.8-2.6-.4-3.5 1.2-5.6 9.6-4.3 18.5 2 27.2 1.7 2.4 2.9 3.1 6.3 3 11.8-.3 18.2-6.7 22.5-16.3.9-1.8.4-2.8-1.4-3.5m-3.2 2.7c-.1.9-.2 2-.6 2.7-3.6 5.7-9.4 8.4-15.8 10.9.3-1.8 1.4-2.2 2.2-2.8 3.6-3 6.8-6.2 8.7-10.6.3-.7.8-1.3 1.3-1.9.7-.8 1.7-1.4 2.9-.9s1.4 1.6 1.3 2.6m10.7-18.1c-1.4-2.6-3.6-4.2-5.9-5.8-1.8-1.3-2.8-2.9-2.2-5.1.2-.9.6-1.9-.7-2.4-1.2-.5-1.8.1-2.4 1-1.3 1.8-3.2 2.1-5.2 1.8-2.2-.3-4.4-.7-6.7-1-3.4-.6-6.3.3-8.4 2.9-1.4 1.6-2.5 3.3-3 5.4-.9 3.8-1.1 3.8 2.7 5.5 4.1 1.8 8.2 3.6 12.3 5.5 4.4 1.9 8.7 3.9 13.1 5.8.1 0 .2.1.3.1 2 1.2 3.4.5 4.8-1.1 3.2-3.6 3.7-8.2 1.3-12.6M50.1 29c-.1.1-.3.4-.6.5-.6.1-.9-.4-1-.9-.8-3.1-3.2-4.9-5.8-6.5-1.5-.9-2.3-2.3-1.1-3.8 1.1-1.5 2.6-1 3.9-.2 3.8 2 6.2 7.6 4.6 10.9"/><path d="M32 3c16 0 29 13 29 29S48 61 32 61 3 48 3 32 16 3 32 3m0-3C14.3 0 0 14.3 0 32s14.3 32 32 32 32-14.3 32-32S49.7 0 32 0"/></svg>