<svg xmlns="http://www.w3.org/2000/svg" id="erudus-circle-free-from-mustard-__Layer_1" viewBox="0 0 64 64"><defs><style>.erudus-circle-free-from-mustard-__cls-1{stroke-width:0}</style></defs><path d="M7.62 51.15v-6.84h1.93l1.84 3.82 1.84-3.82h1.88v6.84h-1.67v-4.28l-1.36 2.81h-1.4l-1.37-2.83v4.29H7.64Zm12.01.14c-1.01 0-1.79-.27-2.33-.8s-.82-1.3-.82-2.3v-3.88h1.83v3.75c0 1.09.44 1.64 1.32 1.64s1.32-.55 1.32-1.64v-3.75h1.83v3.88c0 1-.27 1.76-.81 2.3s-1.32.8-2.34.8m6.64 0c-.31 0-.61-.03-.92-.08s-.59-.12-.85-.21a2.7 2.7 0 0 1-.64-.3l.16-1.46c.29.18.63.33 1.03.44s.78.17 1.15.17c.34 0 .59-.06.77-.17a.53.53 0 0 0 .27-.48c0-.13-.03-.23-.1-.32s-.19-.17-.36-.24-.4-.16-.71-.25q-1.11-.3-1.59-.81c-.32-.33-.49-.77-.49-1.32 0-.65.23-1.17.7-1.54.46-.38 1.1-.56 1.9-.56.39 0 .78.05 1.17.14.39.1.71.22.97.39l-.23 1.41a2.9 2.9 0 0 0-.87-.37c-.34-.09-.66-.13-.96-.13-.62 0-.94.2-.94.6 0 .17.07.31.22.41.14.1.41.21.8.32.82.23 1.4.52 1.75.85s.53.77.53 1.32c0 .69-.24 1.23-.72 1.61s-1.16.57-2.03.57Zm5.37-.14v-5.37h-2.1v-1.47h6.02v1.47h-2.1v5.37h-1.83Zm3.55 0 2.68-6.84h1.88l2.68 6.84h-1.91l-.53-1.59h-2.48l-.53 1.59zm2.77-2.95h1.58l-.79-2.4zm5.38 2.95v-6.84h2.49c.84 0 1.5.21 1.97.62s.71.98.71 1.71c0 .39-.09.74-.28 1.06q-.285.465-.72.78l1.67 2.67h-1.99l-1.2-2.2h-.92v2.2zm2.25-5.52h-.52v2h.5c.79 0 1.18-.34 1.18-1.01s-.39-.99-1.16-.99m4.49 5.52v-6.84h2.74c1.25 0 2.21.3 2.88.89s1 1.44 1 2.53c0 .72-.15 1.33-.46 1.84s-.76.9-1.34 1.17-1.29.41-2.12.41h-2.69Zm2.63-5.41h-.83v3.98h.83c1.41 0 2.12-.66 2.12-1.99s-.71-1.99-2.12-1.99M20.36 61.07v-6.84h4.66v1.43h-2.9v1.49h2.51v1.43h-2.51v2.48h-1.76Zm5.74 0v-6.84h2.49c.84 0 1.5.21 1.97.62s.71.98.71 1.71c0 .39-.09.74-.28 1.06q-.285.465-.72.78l1.67 2.67h-1.99l-1.2-2.2h-.92v2.2zm2.25-5.52h-.52v2h.5c.79 0 1.18-.34 1.18-1.01s-.39-.99-1.16-.99m4.49 5.52v-6.84h4.76v1.38h-3.1v1.31h2.73v1.38H34.5v1.4h3.22v1.38h-4.89Zm6.11 0v-6.84h4.76v1.38h-3.1v1.31h2.73v1.38h-2.73v1.4h3.22v1.38h-4.89ZM32 1.69c8.99 0 16.31 7.32 16.31 16.31S40.99 34.31 32 34.31 15.69 26.99 15.69 18 23.01 1.69 32 1.69M32 0c-9.94 0-18 8.06-18 18s8.06 18 18 18 18-8.06 18-18S41.94 0 32 0" class="erudus-circle-free-from-mustard-__cls-1"/><path d="M43.68 31.5 19.05 6.79l1.27-1.17 24.63 24.72z" class="erudus-circle-free-from-mustard-__cls-1"/><path d="M37.88 18.32c0-.45-.05-.91-.08-1.36 0-.16-.04-.32-.05-.48-.02-.2-.05-.41-.07-.61a3 3 0 0 0-.15-.69c-.14-.42-.33-.82-.55-1.21-.32-.59-.7-1.14-1.09-1.69q-.435-.6-.9-1.17c-.01-.02-.03-.04-.04-.06-.02-.02-.01-.04.01-.06.01 0 .02-.01.03-.02.04-.02.05-.06.05-.1-.01-.15 0-.3-.01-.46v-.09c0-.04-.01-.07 0-.11v-.08c0-.37 0-.75.02-1.12v-.85c0-.05 0-.1.02-.16.02-.04.01-.08 0-.12-.02-.04-.05-.07-.08-.1-.04-.03-.09-.06-.14-.09-.11-.06-.23-.1-.35-.13-.22-.06-.44-.11-.67-.14-.12-.02-.23-.03-.35-.05-.06 0-.1-.04-.11-.1 0-.02 0-.03-.01-.05-.26-1.29-.53-2.59-.79-3.88-.03-.16-.07-.32-.1-.49a.16.16 0 0 0-.08-.12c-.26-.16-.5-.16-.76 0-.04.02-.06.06-.07.1 0 .03-.01.06-.02.1-.08.38-.15.75-.23 1.13-.21 1.05-.43 2.11-.64 3.16 0 .03-.01.05-.02.08 0 .04-.03.06-.07.06s-.09.01-.13.02c-.3.04-.59.09-.88.16-.16.04-.31.09-.45.17-.05.03-.1.06-.14.11q-.075.075-.06.18c.01.05.01.1.01.15v2.07c.02.05.01.1.01.15v.49c0 .06 0 .11-.04.16-.07.1-.14.21-.21.32l-.83 1.19c-.24.35-.47.69-.7 1.05-.28.44-.54.88-.76 1.35-.13.28-.23.57-.27.88-.02.22-.05.45-.06.67-.02.28-.03.56-.04.84-.01.3 0 .6-.02.9v.47c0 .69 0 1.39.01 2.08.02.46 0 .93.02 1.39.02.33 0 .66.02.98.02.27 0 .55.02.83.02.27 0 .54.02.81.01.22 0 .44.02.66.01.23 0 .47.02.71.01.19 0 .38.02.57.01.23.01.47.02.71 0 .15 0 .3.02.46.01.22 0 .44.02.66 0 .14 0 .28.02.42l.03.72c0 .15.02.3.04.45.08.45.25.85.53 1.21.04.05.09.1.15.13.14.07.28.13.42.19.69.27 1.41.45 2.15.56.26.04.51.07.77.09.13.01.27.03.4.03.1 0 .21.31.31.31.02 0 .04-.26.06.31h.85c.04-.56.08-.31.12-.31.23 0 .47-.16.7-.17.25-.02.51-.1.76-.12.37-.03.74-.11 1.11-.18.33-.06.65-.15.97-.25.35-.11.69-.25 1-.43.13-.07.25-.16.37-.24.04-.02.07-.06.09-.09.27-.37.44-.78.5-1.24.02-.15.02-.3.03-.46.01-.34.01-.68.03-1.02.01-.23 0-.46.02-.69.02-.27 0-.54.02-.81.01-.26 0-.52.02-.78.02-.31 0-.62.02-.93.02-.32 0-.64.02-.95.03-.7.12-1.39.13-2.09 0-.04.12-.08.12-.12v-3.64s-.12-.08-.12-.12Zm-2.15 7.91s-3.36.27-4.55.27c-1.04 0-3.97-.27-3.97-.27v-8.74s2.92.36 3.97.36c1.17 0 4.55-.36 4.55-.36z" class="erudus-circle-free-from-mustard-__cls-1"/></svg>