<svg xmlns="http://www.w3.org/2000/svg" id="erudus-circle-free-from-sesame-__Layer_1" viewBox="0 0 64 64"><defs><style>.erudus-circle-free-from-sesame-__cls-1{stroke-width:0}</style></defs><path d="M14.51 51.29c-.31 0-.61-.03-.92-.08s-.59-.12-.86-.21-.48-.19-.64-.3l.16-1.46c.29.18.63.33 1.03.44s.78.17 1.15.17c.34 0 .59-.06.77-.17a.53.53 0 0 0 .27-.48.5.5 0 0 0-.1-.32q-.105-.135-.36-.24c-.17-.07-.4-.16-.71-.25q-1.11-.3-1.59-.81c-.48-.51-.49-.77-.49-1.32 0-.65.23-1.17.7-1.54.46-.38 1.1-.56 1.9-.56.39 0 .78.05 1.17.14s.71.22.97.39l-.23 1.41c-.24-.16-.53-.28-.87-.37s-.66-.13-.96-.13c-.62 0-.94.2-.94.6 0 .17.07.31.22.41.14.1.41.21.8.32.82.23 1.4.52 1.75.85s.53.77.53 1.32c0 .69-.24 1.23-.72 1.61s-1.16.57-2.03.57Zm3.9-.14v-6.84h4.76v1.38h-3.1V47h2.73v1.38h-2.73v1.4h3.22v1.38H18.4Zm8.29.14c-.31 0-.61-.03-.92-.08s-.59-.12-.85-.21a2.7 2.7 0 0 1-.64-.3l.16-1.46c.29.18.63.33 1.03.44s.78.17 1.15.17c.34 0 .59-.06.77-.17a.53.53 0 0 0 .27-.48c0-.13-.04-.23-.1-.32q-.105-.135-.36-.24c-.17-.07-.41-.16-.71-.25q-1.11-.3-1.59-.81c-.32-.33-.49-.77-.49-1.32 0-.65.23-1.17.7-1.54s1.1-.56 1.9-.56c.39 0 .78.05 1.17.14.39.1.71.22.97.39l-.22 1.41a2.9 2.9 0 0 0-.87-.37c-.34-.09-.66-.13-.96-.13-.62 0-.94.2-.94.6 0 .17.07.31.22.41.14.1.41.21.8.32.82.23 1.4.52 1.75.85s.53.77.53 1.32c0 .69-.24 1.23-.72 1.61s-1.16.57-2.03.57Zm3.16-.14 2.68-6.84h1.88l2.68 6.84h-1.91l-.53-1.59h-2.48l-.53 1.59zm2.77-2.95h1.58l-.79-2.4zm5.38 2.95v-6.84h1.93l1.84 3.82 1.84-3.82h1.88v6.84h-1.67v-4.28l-1.36 2.81h-1.4l-1.37-2.83v4.29h-1.67Zm8.9 0v-6.84h4.76v1.38h-3.1V47h2.73v1.38h-2.73v1.4h3.22v1.38H46.9Zm-26.55 9.92v-6.84h4.66v1.43h-2.9v1.49h2.51v1.43h-2.51v2.48h-1.76Zm5.74 0v-6.84h2.49c.84 0 1.5.21 1.97.62s.71.98.71 1.71c0 .39-.09.74-.28 1.06q-.285.465-.72.78l1.67 2.67h-1.99l-1.2-2.2h-.92v2.2zm2.25-5.52h-.52v2h.5c.79 0 1.18-.34 1.18-1.01s-.39-.99-1.16-.99m4.49 5.52v-6.84h4.76v1.38h-3.1v1.31h2.73v1.38H34.5v1.4h3.22v1.38h-4.89Zm6.11 0v-6.84h4.76v1.38h-3.1v1.31h2.73v1.38h-2.73v1.4h3.22v1.38h-4.89ZM32 1.69c8.99 0 16.31 7.32 16.31 16.31S40.99 34.31 32 34.31 15.69 26.99 15.69 18 23.01 1.69 32 1.69M32 0c-9.94 0-18 8.06-18 18s8.06 18 18 18 18-8.06 18-18S41.94 0 32 0" class="erudus-circle-free-from-sesame-__cls-1"/><path d="M43.68 31.5 19.05 6.79l1.27-1.17 24.63 24.72z" class="erudus-circle-free-from-sesame-__cls-1"/><path d="M38.35 23.96c-1.41-1.04-2.04-3.48-1.13-4.58.86-1.03 1.83-.76 2.72-.12 1.35.96 1.96 3.52 1.14 4.61-.6.8-1.72.84-2.73.08Zm-12.89 2.06c-.95-1.08-2.23-2.2-1.12-3.7 1.04-1.4 2.47-.61 3.47.16 1.14.88 2.24 2.15 1.16 3.63-1.04 1.43-2.36.42-3.51-.09m-1.54-12.1c1.54 1.17 2.15 3.61 1.2 4.66-.9.99-1.87.73-2.74.06-1.39-1.07-1.88-3.64-.92-4.63.86-.89 1.73-.55 2.46-.09m7 3.54c1.34 1.03 1.95 3.62 1.04 4.64-.82.92-1.74.68-2.57.11-1.45-.99-2.08-3.45-1.22-4.57.65-.84 1.78-.91 2.75-.18m2.51.02c-1.48-1.1-2.02-3.51-1.08-4.62.8-.94 1.69-.76 2.52-.19 1.38.95 2.02 3.47 1.18 4.56-.84 1.08-1.78.75-2.62.25m5.97-.82c-1.5-1.11-2.13-3.61-1.26-4.69s1.8-.73 2.68-.08c1.46 1.08 1.96 3.43.96 4.54-.82.92-1.68.69-2.38.23m-7.38 10.26c-.76-.65-1.19-1.47-.29-2.49.89-1.01 3.36-1.03 4.69 0 .86.66 1.39 1.49.56 2.55-.87 1.12-3.46 1.11-4.96-.06M27.59 9.76c1.46 1.17 2.06 3.58 1.18 4.57-.9 1.01-1.86.68-2.73 0-1.34-1.05-1.93-3.44-1.04-4.44.91-1.02 1.85-.66 2.59-.12Z" class="erudus-circle-free-from-sesame-__cls-1"/></svg>