<svg xmlns="http://www.w3.org/2000/svg" id="erudus-circle-free-from-lactose-__Layer_1" viewBox="0 0 64 64"><defs><style>.erudus-circle-free-from-lactose-__cls-1{stroke-width:0}</style></defs><path d="M20.36 61.07v-6.84h4.66v1.43h-2.9v1.49h2.51v1.43h-2.51v2.48h-1.76Zm5.74 0v-6.84h2.49c.84 0 1.5.21 1.97.62s.71.98.71 1.71c0 .39-.09.74-.28 1.06q-.285.465-.72.78l1.67 2.67h-1.99l-1.2-2.2h-.92v2.2zm2.25-5.52h-.52v2h.5c.79 0 1.18-.34 1.18-1.01s-.39-.99-1.16-.99m4.49 5.52v-6.84h4.76v1.38h-3.1v1.31h2.73v1.38H34.5v1.4h3.22v1.38h-4.89Zm6.11 0v-6.84h4.76v1.38h-3.1v1.31h2.73v1.38h-2.73v1.4h3.22v1.38h-4.89ZM32 1.69c8.99 0 16.31 7.32 16.31 16.31S40.99 34.31 32 34.31 15.69 26.99 15.69 18 23.01 1.69 32 1.69M32 0c-9.94 0-18 8.06-18 18s8.06 18 18 18 18-8.06 18-18S41.94 0 32 0" class="erudus-circle-free-from-lactose-__cls-1"/><path d="M43.68 31.5 19.05 6.79l1.27-1.17 24.63 24.72z" class="erudus-circle-free-from-lactose-__cls-1"/><path d="M33.96 12.52c-.06-.12-1.29-2.62-2.51-4.15.27-.16.46-.5.46-.89 0-.54-.36-.98-.8-.98h-5.67c-.44 0-.8.44-.8.98 0 .39.19.73.46.89-1.22 1.53-2.45 4.03-2.51 4.15l-.07.15v14.11c0 1.45 1.27 2.62 2.84 2.62h5.84c1.56 0 2.84-1.18 2.84-2.62V12.67zm-5.77.32c-2 1.39-4.84 0-4.84 0s1.47-3.01 2.72-4.37h4.4c1.25 1.37 2.72 4.37 2.72 4.37s-3.01-1.39-5.01 0Zm6.19 7.74.7 8.59h5.7l.7-8.59h-7.11Zm3.61 2.43c-.83.52-2.91-.01-2.91-.01l-.16-1.95h6.03l-.16 1.97s-1.96-.54-2.8-.01M9.01 51.3v-6.84h1.83v5.37h2.9v1.47H9.02Zm5.51 0 2.68-6.84h1.88l2.68 6.84h-1.91l-.53-1.59h-2.48l-.53 1.59zm2.77-2.95h1.58l-.79-2.4zm8.3 3.04c-.76 0-1.42-.14-1.98-.43s-.98-.69-1.28-1.21q-.45-.78-.45-1.86c0-.52.09-1 .27-1.43s.44-.81.77-1.12c.33-.32.73-.56 1.19-.73s.96-.26 1.52-.26c.39 0 .78.05 1.17.14.39.1.72.22.99.39l-.29 1.5c-.28-.14-.58-.25-.88-.32-.31-.08-.6-.12-.88-.12-.61 0-1.1.17-1.45.53q-.54.525-.54 1.41c0 .885.18 1.05.54 1.4s.84.52 1.46.52c.29 0 .61-.05.95-.15.35-.1.67-.23.95-.39l.19 1.58c-.28.17-.62.3-1.04.41-.41.1-.83.15-1.23.15Zm5.14-.09v-5.37h-2.1v-1.47h6.02v1.47h-2.1v5.37h-1.83Zm8.06.14a4.2 4.2 0 0 1-1.49-.26c-.45-.17-.84-.42-1.17-.74a3.3 3.3 0 0 1-.77-1.13c-.18-.44-.27-.91-.27-1.44s.09-.97.28-1.41.45-.81.78-1.13c.34-.32.73-.57 1.18-.75q.675-.27 1.47-.27c.795 0 1.04.09 1.49.26a3.38 3.38 0 0 1 1.94 1.87c.18.44.27.91.27 1.44s-.09.97-.28 1.41-.45.81-.78 1.13c-.34.32-.73.57-1.18.75s-.94.27-1.47.27m0-1.59a1.74 1.74 0 0 0 1.59-.95c.16-.3.23-.63.23-1.01s-.08-.72-.23-1.02-.37-.53-.64-.7-.59-.26-.95-.26-.67.08-.95.25-.49.4-.65.69-.23.63-.23 1.02.08.72.23 1.02c.16.3.37.53.65.7s.59.26.95.26m6.92 1.59c-.31 0-.61-.03-.92-.08s-.59-.12-.85-.21a2.7 2.7 0 0 1-.64-.3l.16-1.46c.29.18.63.33 1.03.44s.78.17 1.15.17c.34 0 .59-.06.77-.17a.53.53 0 0 0 .27-.48c0-.13-.04-.23-.1-.32q-.105-.135-.36-.24c-.17-.07-.41-.16-.71-.25q-1.11-.3-1.59-.81c-.32-.33-.49-.77-.49-1.32 0-.65.23-1.17.7-1.54s1.1-.56 1.9-.56c.39 0 .78.05 1.17.14.39.1.71.22.97.39l-.22 1.41a2.9 2.9 0 0 0-.87-.37c-.34-.09-.66-.13-.96-.13-.62 0-.94.2-.94.6 0 .17.07.31.22.41.14.1.41.21.8.32.82.23 1.4.52 1.75.85s.53.77.53 1.32c0 .69-.24 1.23-.72 1.61s-1.16.57-2.03.57Zm3.9-.14v-6.84h4.76v1.38h-3.1v1.31H54v1.38h-2.73v1.4h3.22v1.38H49.6Z" class="erudus-circle-free-from-lactose-__cls-1"/></svg>