<svg xmlns="http://www.w3.org/2000/svg" id="erudus-circle-free-from-sulphur-dioxide-__Layer_1" viewBox="0 0 64 64"><defs><style>.erudus-circle-free-from-sulphur-dioxide-__cls-1{stroke-width:0}</style></defs><path d="M20.36 61.07v-6.84h4.66v1.43h-2.9v1.49h2.51v1.43h-2.51v2.48h-1.76Zm5.74 0v-6.84h2.49c.84 0 1.5.21 1.97.62s.71.98.71 1.71c0 .39-.09.74-.28 1.06q-.285.465-.72.78l1.67 2.67h-1.99l-1.2-2.2h-.92v2.2zm2.25-5.52h-.52v2h.5c.79 0 1.18-.34 1.18-1.01s-.39-.99-1.16-.99m4.49 5.52v-6.84h4.76v1.38h-3.1v1.31h2.73v1.38H34.5v1.4h3.22v1.38h-4.89Zm6.11 0v-6.84h4.76v1.38h-3.1v1.31h2.73v1.38h-2.73v1.4h3.22v1.38h-4.89ZM32 1.69c8.99 0 16.31 7.32 16.31 16.31S40.99 34.31 32 34.31 15.69 26.99 15.69 18 23.01 1.69 32 1.69M32 0c-9.94 0-18 8.06-18 18s8.06 18 18 18 18-8.06 18-18S41.94 0 32 0" class="erudus-circle-free-from-sulphur-dioxide-__cls-1"/><path d="M43.68 31.5 19.05 6.79l1.27-1.17 24.63 24.72zm-10.46-7.29c-.16-.1-.34-.14-.55-.14-.15 0-.28.03-.41.08s-.23.13-.32.23q-.135.15-.21.39a1.8 1.8 0 0 0 0 1.07c.05.16.13.29.22.4.1.11.21.18.33.24.12.05.26.08.41.08a.98.98 0 0 0 .9-.56c.09-.19.14-.42.14-.69 0-.25-.04-.48-.13-.66s-.21-.33-.37-.42Z" class="erudus-circle-free-from-sulphur-dioxide-__cls-1"/><path d="M40.49 25.39c-1.18-2.57-2.3-5.16-3.45-7.74-.65-1.46-1.3-2.92-2-4.36-.8-1.64-1.52-3.27-1.26-5.14.07-.51-.02-1.03.32-1.51.12-.16.32-.46.03-.75-.37.17-.65.49-.69.84-.19 1.52-.37 3.08.08 4.57.31 1.05.9 2.02 1.36 3.03.97 2.12 1.93 4.25 2.9 6.38.31.68.1 1-.67 1H26.3c-.69 0-.87-.29-.58-.89 1.24-2.66 2.32-5.39 3.56-8.05.75-1.61 1.19-3.19 1.05-4.93-.03-.45-.13-.85-.37-1.24-.11-.18-.24-.41-.47-.31-.29.12-.08.35-.01.52.58 1.48.56 2.95-.07 4.4-1.81 4.17-3.64 8.34-5.46 12.51-.49 1.12-1.05 2.21-.9 3.49.13 1.18.8 2.12 1.72 2.13 4.58.02 9.16.02 13.75 0 .68 0 1.45-.15 1.76-.75.5-1 .76-2.05.24-3.18Zm-10.22 1.18c-.11.17-.28.3-.5.39s-.48.14-.78.14c-.36 0-.66-.06-.89-.19-.17-.09-.3-.22-.41-.37s-.16-.31-.16-.45c0-.09.03-.16.09-.22q.09-.09.24-.09c.08 0 .14.02.2.07.05.05.1.12.14.21.05.11.1.2.15.28.05.07.13.14.23.18s.23.07.39.07c.22 0 .4-.05.53-.15q.21-.15.21-.36c0-.12-.04-.21-.11-.28a.63.63 0 0 0-.29-.16 4 4 0 0 0-.47-.12q-.39-.09-.66-.21a1 1 0 0 1-.42-.32c-.1-.14-.16-.3-.16-.5s.05-.36.16-.51.27-.26.48-.34.45-.12.73-.12c.22 0 .42.03.58.08s.3.12.41.21.19.18.24.28.07.19.07.28c0 .08-.03.16-.09.23a.29.29 0 0 1-.23.1c-.08 0-.15-.02-.19-.06a1 1 0 0 1-.14-.2 1.1 1.1 0 0 0-.24-.31c-.09-.07-.24-.11-.45-.11-.19 0-.35.04-.46.12-.12.08-.18.18-.18.29q0 .105.06.18c.04.05.09.09.16.13s.14.06.21.09c.07.02.19.05.35.09.21.05.39.1.56.15.17.06.31.12.43.2q.18.12.27.3c.07.12.1.27.1.44 0 .21-.06.4-.17.57Zm4.09-.53c-.08.22-.19.41-.34.57s-.34.28-.56.37-.48.13-.77.13-.54-.04-.77-.13-.41-.21-.57-.37c-.15-.16-.27-.35-.34-.58-.08-.22-.12-.47-.12-.73s.04-.51.12-.74c.08-.22.2-.41.35-.57s.34-.28.56-.36q.33-.12.75-.12c.38 0 .7.07.98.22.27.15.48.35.62.62s.21.59.21.95c0 .27-.04.51-.11.73Zm2.15 1.67s-.08.05-.15.05h-1.1c-.08 0-.13-.02-.18-.06a.2.2 0 0 1-.06-.14.5.5 0 0 1 .13-.27c.13-.13.25-.24.36-.34s.18-.15.23-.18c.08-.05.15-.11.2-.17s.1-.11.12-.17a.4.4 0 0 0 .04-.17c0-.06-.02-.12-.05-.16-.03-.05-.07-.09-.12-.11s-.11-.04-.17-.04c-.13 0-.23.05-.31.16 0 .01-.03.05-.05.12a.5.5 0 0 1-.08.15c-.03.03-.07.05-.13.05-.05 0-.09-.02-.12-.05s-.05-.07-.05-.13a.58.58 0 0 1 .19-.4c.06-.06.14-.1.23-.14s.2-.05.33-.05c.15 0 .28.02.39.07.07.03.13.07.18.13q.075.075.12.18c.03.07.04.14.04.22 0 .12-.03.23-.09.32s-.12.17-.19.23c-.06.05-.17.14-.32.26s-.25.21-.31.27c-.02.03-.05.06-.07.09h.78c.08 0 .14.01.18.05s.06.07.06.12-.02.09-.05.12ZM10.22 51.29c-.31 0-.61-.03-.92-.08s-.59-.12-.86-.21-.48-.19-.64-.3l.16-1.46c.29.18.63.33 1.03.44s.78.17 1.15.17c.34 0 .59-.06.77-.17a.53.53 0 0 0 .27-.48.5.5 0 0 0-.1-.32q-.105-.135-.36-.24c-.17-.07-.4-.16-.71-.25q-1.11-.3-1.59-.81c-.48-.51-.49-.77-.49-1.32 0-.65.23-1.17.7-1.54.46-.38 1.1-.56 1.9-.56.39 0 .78.05 1.17.14s.71.22.97.39l-.23 1.41c-.24-.16-.53-.28-.87-.37s-.66-.13-.96-.13c-.62 0-.94.2-.94.6 0 .17.07.31.22.41.14.1.41.21.8.32.82.23 1.4.52 1.75.85s.53.77.53 1.32c0 .69-.24 1.23-.72 1.61s-1.16.57-2.03.57Zm7.01 0c-1.01 0-1.79-.27-2.33-.8s-.82-1.3-.82-2.3v-3.88h1.83v3.75c0 1.09.44 1.64 1.32 1.64s1.32-.55 1.32-1.64v-3.75h1.83v3.88c0 1-.27 1.76-.81 2.3s-1.32.8-2.34.8m4.53-.14v-6.84h1.83v5.37h2.9v1.47zm5.75 0v-6.84H30c.55 0 1.03.09 1.43.28s.71.46.92.81c.22.35.32.76.32 1.24 0 .73-.24 1.31-.71 1.72-.47.42-1.13.62-1.96.62h-.76v2.16h-1.73Zm2.22-5.52h-.5v2.02h.5c.79 0 1.19-.34 1.19-1.02s-.4-1.01-1.19-1.01Zm3.93 5.52v-6.84h1.83v2.6h2.66v-2.6h1.83v6.84h-1.83v-2.77h-2.66v2.77zm7.74 0v-6.84h1.83v6.84zm4.96 0v-5.37h-2.1v-1.47h6.02v1.47h-2.1v5.37h-1.83Zm4.95 0v-6.84h4.76v1.38h-3.1V47h2.73v1.38h-2.73v1.4h3.22v1.38H51.3Z" class="erudus-circle-free-from-sulphur-dioxide-__cls-1"/></svg>