<svg xmlns="http://www.w3.org/2000/svg" xml:space="preserve" viewBox="0 0 64 64"><path d="M48.5 10.2s-5.2.2-6.5 3.5c-1.3 3.2 3 9.4 1.4 10.5-.4.3-2.5.3-2.9.6s-.6.6-.7 1l-.5 1.4-7.4 19.1c-.5 1.4-1 2.9-1.3 4.7-.2-.9-.4-1.7-.7-2.5-.2-.8-.5-1.5-.8-2.2l-7.9-20.6c-.2-.4-.4-1.4-.8-1.7-.4-.2-.9-1-1.4-1h-5.1l13.6 35h5.7s10.2-22.8 12.4-30.8c.2-.6-1.2-2.5-.6-3 8.8-8 3.5-14 3.5-14"/><path d="M32 3c16 0 29 13 29 29S48 61 32 61 3 48 3 32 16 3 32 3m0-3C14.3 0 0 14.3 0 32s14.3 32 32 32 32-14.3 32-32S49.7 0 32 0"/></svg>