<svg xmlns="http://www.w3.org/2000/svg" xml:space="preserve" viewBox="0 0 64 64"><path d="M54.9 28.5C52.8 17 42 8.8 29.1 8.8c-5.5-.2-10.6 1.6-15 5.2-2.5 2.1-4.1 4.7-4.6 7.9-.6 4.1.2 7.9 1.5 11.7.4 1.3.6 2.4-.5 3.5-2.5 2.5-2.3 3.4.5 5.4.9.6 1.8 1.2 2.8 1.6 2.2 1 4.3 2.1 5.7 4.1.7 1.1 1.9 1.3 3.2 1.2 1.6-.1 2.9.5 3.9 1.7.8.9 1.7 1.8 2.6 2.6 2.6 2.4 4.4 2.1 5.6-1.1.7-1.8 1.8-2.7 3.7-2.9 1-.1 2-.5 3-.7C53 46.6 56.4 36.4 54.9 28.5M16.5 39.9c-.9-9.3 0-18.4 3.6-27.3-2.1 9-2.9 18.2-3.6 27.3m2.6-.2c-.6-11.1 4.9-20.1 11-28.9-4.7 9.3-10.4 18.3-11 28.9M36.8 15C31 24.1 25.4 33.3 20.4 42.7c3.7-10.1 9.4-19.2 16.4-27.7M21.6 45.5c7.7-8.5 15.9-16.7 23.1-25.7-6.1 9.8-14.4 17.9-23.1 25.7m2.4 1.6c9.2-5.5 19-10.4 26.6-18-6.9 8.7-16.6 13.5-26.6 18m4 1.1c8.8-2.4 17-5.9 24.6-10.8-7 6-15.2 9.5-24.6 10.8"/><path d="M32 3c16 0 29 13 29 29S48 61 32 61 3 48 3 32 16 3 32 3m0-3C14.3 0 0 14.3 0 32s14.3 32 32 32 32-14.3 32-32S49.7 0 32 0"/></svg>