<svg xmlns="http://www.w3.org/2000/svg" xml:space="preserve" viewBox="0 0 64 64"><path d="M36.2 37c0-2.9-.3-9.5-.4-12.4-.1-1.5-.3-5.2-.3-5.2s.8-1.6.5-1.8c-.3-.3-2.2.3-2.2.3s-10.4-.7-13.7-.7c-2.3 0-8.8.7-8.8.7s-1.5-.9-1.8-.7c-.2.2.4 1.9.4 1.9s.5 3.5.5 4.8c0 3.1-1 10.7-1 14.3 0 2.1.5 8.2.5 8.2s-.7 1.7-.5 1.9c.3.3 2-.3 2-.3s13.7.6 18.2.6c1 0 3.7-.6 3.7-.6s2.4 1 2.8.5c.4-.4-.6-2.7-.6-2.7s.7-6.6.7-8.8m-4-.3c-.4.4-2.2 0-2.2 0H16.1s-1.7.4-2.1 0c-.3-.3 0-2 0-2v-4s-.6-2.9 0-3.6c.3-.3 1.7 0 1.7 0h14.6s1.5-.3 1.8 0 0 1.5 0 1.5v6c.1 0 .4 1.7.1 2.1"/><path d="M46.6 41.5c.3-.4.4-.9.9-1.1.2-.1.2-.2.1-.4-.8-1.2-1.8-2.2-3.1-2.9-.6-.3-1-.3-1.5 0-.1.1-.3.2-.5.2q0-.45.3-.6c.4-.4.1-.5-.2-.6-.9-.4-1.7-.1-2.6-.1-.2 0-.3.1-.5 0-.1-.3.3-.3.3-.6-.5-.1-1.1-.1-1.6-.2 1-.4 2-.1 3-.2-.9-.5-1.9-.7-2.8-1.2.9-.3 1.8 0 2.7.1-.1-.3-.4-.5-.5-.9.8.2 1.4.8 2.1 1.2-.1-.6.3-.9.6-1.3.2-.3.5-.3.8-.1.3.1.4.3 0 .5-.1.1.1.2.1.3.2.3.4.5.6.8.4.8 1 1 1.8 1-.3-.4-.7-.6-1-.9-.1-.1-.3-.2-.2-.4s.3-.1.4-.1.3.1.4.1c.9.3 1.4-.2 1.4-1.1 0-.3-.2-.5.2-.7.2-.1-.7-2.7-.5-3.2.2-.4-.1-.9-.4-1.2-.2-.3-.3-.6-.2-1 0-.1.1-.2 0-.3-.4-.6-1.6-.7-2-.2-.3.5-.8.4-1.3.4-.9 0-1.7-1.2-1.4-2 .1-.3.3-.3.5-.2s.4.2.7.3c0-.4-.1-.6-.2-.8-.2-.5-.1-.8.3-1.1.2-.1.3-.2.2-.4-.2-.3-.3-.5-.3-.9 0-.2-.2-.2-.3-.1-1.2.7-2.4.2-2.7-1.2 0-.1-.1-.3-.2-.4-.2-.2-.2-.4.1-.6q.6-.3 0-.6c-.1 0-.2-.1-.2-.3.2-.6-.3-.6-.6-.7-.2 0-.5-.1-.6-.2-.3-.2-.6-.5-.5-.8 0-.4.5-.3.8-.5-.4-.2-.8-.4-1.2-.7-.3-.2-1-.5-.4-1.1.1-.1 0-.2 0-.2-.4-.3-.4-.8-.5-1.2 0-.1-.1-.3-.2-.3-.6-.1-.8-.6-1.4-.8-.3-.1-.6-.3-.7-.7-.1-.3-.3-.6-.6-.8-.8-.8-1.7-1.6-2.7-2-.5-.2-.9-.5-1.4-.8-.4-.2-.6-.5-.7-.9-.2-.6 0-.9.6-1 1.1-.2 2.3-.1 3.3.5.3.2.7.1 1 .1 1.1 0 2.1.5 3.2.5 1 .1 2.1.4 3 .9q.45.3.6.9c0 .1 0 .3.2.4 0 0 .1 0 .1-.1.1-.2-.2-.6.2-.6.2.3.6.2.9.6.2.3.4.6.9.6s.7.6.8 1c.1.3.1.6.6.2.3-.3.8.1.9.7.2-.1.3-.5.6-.3.4.2.7.6.6 1.1-.1.6.1 1.1.4 1.6.1.2.1.3.4.1.2-.1.3-.6.6-.3.2.3.6.6.5 1-.1.2-.1.5-.1.7.1.1.2 0 .3-.1.3-.1.6-.5.9-.1.2.3.4.8 0 1.2-.3.4-.4.5.1.8.7.5 1.2 1.3 1 2.3-.1.6.5 1.5.5 1.5.1.6.7.7 1 1.1.2.2 0 .6-.2.9-.2.2-.3.5-.3.8q0 .75-.6 1.2c-.4.3-.5.6 0 .9.3.2.2.6.6.8.3.1.6.2.9.4-.2.3-.5.3-.7.1-.4-.4-.8-.4-1.1 0-.5.5-1.1.4-1.6.2-.7-.2-.5.5-.7.7-.2.3.1 1.7.3 1.9.5.4.1 2.3.6 2.7s.6 1 .6 1.6c.1.8.4 1.6.9 2.3.2 0 .2-.2.2-.4.2-1.4.6-2.8 1.2-4.1.1-.1.1-.3.1-.4-.1-.4 0-.6.5-.7.3 0 .3-.3.4-.6 0-.3.1-.5.5-.4.3 0 .5-.2.6-.5.1-.6.5-.9 1.1-1 .2 0 .5-.1.8-.2 0 .2 0 .4.2.6.1.1-.6.5-.8.7-.2.4-.3.8-.4 1.2-.1.2-.5.9-.7 1.2-.2.4-.4.6-.7.9-.6.6-1.1 1.2-1 2.1 0 .3-.1.5-.2.7s-.3.4-.5.6c-.1.2-.4.4-.2.6.1.2.4 0 .6-.1 1.2-.5 2.4-.9 3.7-1.1.3 0 .6-.2.9-.3 1.3-.6 2.7-.7 4.1-.8.1 0 .3 0 .4.1-1.8.9-3.5 1.8-5.6 2-1.2.1-2.4.1-3.6.6-.2.1-.4.1-.5.3 1.2 0 2.3-.2 3.5.3-.3.2-.5.1-.6.1-.8-.2-1.7 0-2.5.2-.1 0-.2.1-.2.2 0 .2.2.1.3.1 1.4-.5 2.7-.1 4 .1.5.1.9 0 1.4-.2.7-.3 1.4-.4 2.2 0-.6.1-1.1.3-1.7.4-.4.1-.1.2-.1.4-.5.1-.9 0-1.3.2.1.3.5.1.6.4-1.1.1-2.1.2-3.3.3.5.3.9.6 1.3 1.1-.9-.4-1.6-.7-2.4-.8-.2 0-.4-.1-.6-.1-.9-.1-1 0-1.2.9 0 .3-.1.6-.2.9-.7 1.8-.7 3.7-1.2 5.6-.4 1.4-.8 2.8-1.2 4.3-.3.9-.6 1.9-.9 2.8-.1.4-1.1.7-1.4.5-.2-.1-.1-.3 0-.4.3-.9.5-1.8.8-2.7.7-1.8.6-3.6.4-5.5-.2-1.6-.3-3.3-.1-4.9 0-.3 0-.5-.4-.4-.3 0-.5 0-.7.1m1.9 6.8c.3-.2.3-.4.4-.6.6-2.1.5-4.2.1-6.4 0-.1 0-.3-.2-.4-.2 0-.3.1-.4.2s-.1.3-.2.5c-.2 1.3-.1 2.7 0 4 .1.9.2 1.7.3 2.7m2.4-6.4c.2-.3.3-.7.3-1.1 0-.2.2-.5-.2-.4-.3.1-.8-.2-.8.5 0 .5.4.7.7 1"/><path d="M32 3c16 0 29 13 29 29S48 61 32 61 3 48 3 32 16 3 32 3m0-3C14.3 0 0 14.3 0 32s14.3 32 32 32 32-14.3 32-32S49.7 0 32 0"/></svg>