<svg xmlns="http://www.w3.org/2000/svg" id="erudus-circle-free-from-molluscs-__Layer_1" viewBox="0 0 64 64"><defs><style>.erudus-circle-free-from-molluscs-__cls-1{stroke-width:0}</style></defs><path d="M8.27 51.15v-6.84h1.93l1.84 3.82 1.84-3.82h1.88v6.84h-1.67v-4.28l-1.36 2.81h-1.4l-1.37-2.83v4.29H8.29Zm12.3.14a4.2 4.2 0 0 1-1.49-.26c-.45-.17-.84-.42-1.17-.74a3.3 3.3 0 0 1-.77-1.13c-.18-.44-.27-.91-.27-1.44s.09-.97.28-1.41.45-.81.78-1.13c.34-.32.73-.57 1.18-.75q.675-.27 1.47-.27c.795 0 1.04.09 1.49.26a3.38 3.38 0 0 1 1.94 1.87c.18.44.27.91.27 1.44s-.09.97-.28 1.41-.45.81-.78 1.13c-.34.32-.73.57-1.18.75q-.675.27-1.47.27m0-1.59c.35 0 .67-.08.94-.25s.49-.4.65-.7.23-.63.23-1.01-.08-.72-.23-1.02c-.16-.3-.37-.53-.64-.7s-.59-.26-.95-.26-.67.08-.94.25c-.28.17-.49.4-.65.69s-.23.63-.23 1.02.08.72.23 1.02a1.77 1.77 0 0 0 1.59.96m4.81 1.45v-6.84h1.83v5.37h2.9v1.47zm5.75 0v-6.84h1.83v5.37h2.9v1.47zm8.66.14c-1.01 0-1.79-.27-2.33-.8s-.82-1.3-.82-2.3v-3.88h1.83v3.75c0 1.09.44 1.64 1.32 1.64s1.32-.55 1.32-1.64v-3.75h1.83v3.88c0 1-.27 1.76-.81 2.3s-1.32.8-2.34.8m6.64 0c-.31 0-.61-.03-.92-.08s-.59-.12-.85-.21a2.7 2.7 0 0 1-.64-.3l.16-1.46c.29.18.63.33 1.03.44s.78.17 1.15.17c.34 0 .59-.06.77-.17a.53.53 0 0 0 .27-.48c0-.13-.03-.23-.1-.32s-.19-.17-.36-.24-.4-.16-.71-.25q-1.11-.3-1.59-.81c-.32-.33-.49-.77-.49-1.32 0-.65.23-1.17.7-1.54.46-.38 1.1-.56 1.9-.56.39 0 .78.05 1.17.14.39.1.71.22.97.39l-.23 1.41a2.9 2.9 0 0 0-.87-.37c-.34-.09-.66-.13-.96-.13-.62 0-.94.2-.94.6 0 .17.07.31.22.41.14.1.41.21.8.32.82.23 1.4.52 1.75.85s.53.77.53 1.32c0 .69-.24 1.23-.72 1.61s-1.16.57-2.03.57Zm7.28-.04c-.76 0-1.42-.14-1.98-.43s-.98-.69-1.28-1.21q-.45-.78-.45-1.86c0-.52.09-1 .27-1.43s.44-.81.77-1.12c.33-.32.73-.56 1.19-.73s.96-.26 1.52-.26c.39 0 .78.05 1.17.14.39.1.72.22.99.39l-.29 1.5c-.28-.14-.58-.25-.88-.32-.31-.08-.6-.12-.88-.12-.61 0-1.1.17-1.45.53q-.54.525-.54 1.41c0 .885.18 1.05.54 1.4s.84.52 1.46.52c.29 0 .61-.05.95-.15s.67-.23.95-.39l.19 1.58c-.28.17-.62.3-1.04.41-.41.1-.83.15-1.23.15Zm-33.35 9.82v-6.84h4.66v1.43h-2.9v1.49h2.51v1.43h-2.51v2.48h-1.76Zm5.74 0v-6.84h2.49c.84 0 1.5.21 1.97.62s.71.98.71 1.71c0 .39-.09.74-.28 1.06q-.285.465-.72.78l1.67 2.67h-1.99l-1.2-2.2h-.92v2.2zm2.25-5.52h-.52v2h.5c.79 0 1.18-.34 1.18-1.01s-.39-.99-1.16-.99m4.49 5.52v-6.84h4.76v1.38h-3.1v1.31h2.73v1.38H34.5v1.4h3.22v1.38h-4.89Zm6.11 0v-6.84h4.76v1.38h-3.1v1.31h2.73v1.38h-2.73v1.4h3.22v1.38h-4.89ZM32 1.69c8.99 0 16.31 7.32 16.31 16.31S40.99 34.31 32 34.31 15.69 26.99 15.69 18 23.01 1.69 32 1.69M32 0c-9.94 0-18 8.06-18 18s8.06 18 18 18 18-8.06 18-18S41.94 0 32 0" class="erudus-circle-free-from-molluscs-__cls-1"/><path d="M43.68 31.5 19.05 6.79l1.27-1.17 24.63 24.72z" class="erudus-circle-free-from-molluscs-__cls-1"/><path d="M42.62 16.95c-.97-5.4-5.97-9.29-11.98-9.3-2.54-.09-4.92.74-6.97 2.46-1.17.98-1.9 2.2-2.12 3.73-.27 1.93.13 3.74.71 5.55.19.6.28 1.13-.24 1.67-1.11 1.14-1.06 1.58.23 2.51.41.29.85.55 1.31.76 1.04.46 2.01.98 2.66 1.96.33.5.9.59 1.46.56.76-.05 1.32.24 1.8.8.38.43.8.83 1.22 1.22 1.22 1.12 2.02.98 2.6-.53.32-.85.84-1.26 1.73-1.36.47-.05.92-.22 1.38-.32 5.3-1.14 6.87-5.95 6.19-9.7Zm-17.78 5.41c-.42-4.4 0-8.71 1.67-12.88-.99 4.24-1.36 8.55-1.67 12.88m1.18-.09c-.27-5.22 2.27-9.48 5.1-13.64-2.19 4.38-4.79 8.62-5.1 13.64m8.19-11.66c-2.66 4.29-5.27 8.61-7.57 13.09 1.68-4.79 4.36-9.07 7.57-13.09m-7.04 14.37c3.59-4.01 7.38-7.87 10.68-12.13-2.78 4.64-6.63 8.46-10.68 12.13m1.1.79c4.27-2.62 8.79-4.9 12.32-8.48-3.16 4.06-7.67 6.36-12.32 8.48m1.85.5c4.07-1.15 7.89-2.8 11.38-5.09-3.22 2.83-7.02 4.5-11.38 5.09" class="erudus-circle-free-from-molluscs-__cls-1"/></svg>