<svg xmlns="http://www.w3.org/2000/svg" xml:space="preserve" viewBox="0 0 64 64"><path d="M20.5 20.6c-9.1 3.8-15 11.9-15 11.9 0 .1 4 4.7 8.2 3.6.2-.1.2.5.1.7-.3.4-.9.4-1.4.4-2.5 0-5.2-2.1-6.6-3.3 1.9 2.3 7.2 8 14 11.1 5.2-8.2 1.5-21.7.7-24.4M15 33.3c-1.3 0-2.3-1-2.3-2.2s1-2.2 2.3-2.2 2.3 1 2.3 2.2c-.1 1.2-1.1 2.2-2.3 2.2"/><path d="M49.9 29.8c-1.8-1.9-4.3-4.2-7.4-6.3-.6-.4-.9-1.6-3.6-3.6-4.2-3.2-4.5-2.9-8.4-3.1-.3 0-1.3 2-1.6 2-2.6 0-5 .5-7.3 1.4.8 2.5 4.7 16.4-.7 25.3 2.1.8 4.2 1.4 6.5 1.6.5 0 1 .1 1.5.1.8 0 1.5 0 2.3-.1 1.2-.1 2.4-.4 3.6-.8 7.1-2.2 12.9-7.6 15.9-10.8 0 0 5.3 7.4 7.2 6.6 2.1-.9-.6-5.4-.8-10-.2-4.4 2.1-8.8.7-9.6-2.1-1.3-7.9 7.3-7.9 7.3"/></svg>